<?xml version="1.0" encoding="UTF-8"?>
<!DOCTYPE svg PUBLIC "-//W3C//DTD SVG 1.1//EN" "http://www.w3.org/Graphics/SVG/1.1/DTD/svg11.dtd">
<svg xmlns="http://www.w3.org/2000/svg" version="1.1" width="638px" height="391px" style="shape-rendering:geometricPrecision; text-rendering:geometricPrecision; image-rendering:optimizeQuality; fill-rule:evenodd; clip-rule:evenodd" xmlns:xlink="http://www.w3.org/1999/xlink">
<g><path style="opacity:0.184" fill="#1a1a1a" d="M 231.5,35.5 C 230.209,35.2627 229.209,35.596 228.5,36.5C 227.5,36.5 226.5,36.5 225.5,36.5C 225.5,138.5 225.5,240.5 225.5,342.5C 224.833,342.833 224.167,343.167 223.5,343.5C 223.333,240.833 223.5,138.166 224,35.5C 226.605,34.1857 229.105,34.1857 231.5,35.5 Z"/></g>
<g><path style="opacity:0.222" fill="#151515" d="M 228.5,36.5 C 229.209,35.596 230.209,35.2627 231.5,35.5C 231.5,36.1667 231.833,36.5 232.5,36.5C 231.377,61.6611 231.71,86.6611 233.5,111.5C 233.5,147.167 233.5,182.833 233.5,218.5C 232.669,233.995 232.169,249.661 232,265.5C 231.617,264.944 231.117,264.611 230.5,264.5C 230.5,189.167 230.5,113.833 230.5,38.5C 230.5,37.1667 229.833,36.5 228.5,36.5 Z"/></g>
<g><path style="opacity:0.914" fill="#0b0b0b" d="M 228.5,36.5 C 229.833,36.5 230.5,37.1667 230.5,38.5C 229.5,38.5 228.5,38.5 227.5,38.5C 227.5,47.8333 227.5,57.1667 227.5,66.5C 227.831,156.874 227.497,247.208 226.5,337.5C 227.557,337.906 228.891,337.906 230.5,337.5C 230.5,339.5 230.5,341.5 230.5,343.5C 228.585,343.784 226.919,343.451 225.5,342.5C 225.5,240.5 225.5,138.5 225.5,36.5C 226.5,36.5 227.5,36.5 228.5,36.5 Z"/></g>
<g><path style="opacity:0.918" fill="#0f0f0f" d="M 230.5,38.5 C 230.5,113.833 230.5,189.167 230.5,264.5C 230.5,276.167 230.5,287.833 230.5,299.5C 230.832,311.851 230.499,324.185 229.5,336.5C 228.833,246.334 228.167,156.334 227.5,66.5C 227.5,57.1667 227.5,47.8333 227.5,38.5C 228.5,38.5 229.5,38.5 230.5,38.5 Z"/></g>
<g><path style="opacity:0.014" fill="#1c1c1c" d="M 232.5,36.5 C 233.498,61.3278 233.831,86.3278 233.5,111.5C 231.71,86.6611 231.377,61.6611 232.5,36.5 Z"/></g>
<g><path style="opacity:0.878" fill="#131313" d="M 227.5,66.5 C 228.167,156.334 228.833,246.334 229.5,336.5C 230.499,324.185 230.832,311.851 230.5,299.5C 231.36,314.002 232.027,328.669 232.5,343.5C 231.508,345.026 230.008,345.693 228,345.5C 225.992,345.693 224.492,345.026 223.5,343.5C 224.167,343.167 224.833,342.833 225.5,342.5C 226.919,343.451 228.585,343.784 230.5,343.5C 230.5,341.5 230.5,339.5 230.5,337.5C 228.891,337.906 227.557,337.906 226.5,337.5C 227.497,247.208 227.831,156.874 227.5,66.5 Z"/></g>
<g><path style="opacity:0.816" fill="#060606" d="M 317.5,112.5 C 317.027,113.906 316.027,114.573 314.5,114.5C 296.243,115.486 277.91,115.82 259.5,115.5C 259.192,121.425 259.525,127.259 260.5,133C 259.263,133.232 258.263,133.732 257.5,134.5C 256.508,127.018 256.175,119.352 256.5,111.5C 276.909,111.179 297.242,111.512 317.5,112.5 Z"/></g>
<g><path style="opacity:0.848" fill="#060606" d="M 400.5,134.5 C 400.592,128.134 400.425,121.467 400,114.5C 399.667,120.5 399.333,126.5 399,132.5C 397.869,133.604 397.035,133.271 396.5,131.5C 397.167,130.833 397.833,130.167 398.5,129.5C 397.557,124.9 397.223,120.233 397.5,115.5C 383.5,115.5 369.5,115.5 355.5,115.5C 355.334,121.176 355.501,126.843 356,132.5C 357.298,133.56 358.465,134.726 359.5,136C 356.84,137.676 356.84,139.343 359.5,141C 358.974,143.972 357.641,146.472 355.5,148.5C 354.557,146.53 355.224,145.03 357.5,144C 356.756,142.961 355.756,142.461 354.5,142.5C 352.738,132.353 352.071,122.02 352.5,111.5C 368.503,111.333 384.503,111.5 400.5,112C 401.827,119.598 401.827,127.098 400.5,134.5 Z"/></g>
<g><path style="opacity:0.81" fill="#050505" d="M 484.5,113.5 C 482.933,114.681 482.099,116.347 482,118.5C 481.517,117.552 481.351,116.552 481.5,115.5C 475.204,115.372 469.204,115.039 463.5,114.5C 463.5,115.5 463.5,116.5 463.5,117.5C 462.209,117.737 461.209,117.404 460.5,116.5C 460.286,114.856 460.62,113.356 461.5,112C 465.333,111.833 469.167,111.667 473,111.5C 477.229,111.51 481.062,112.177 484.5,113.5 Z"/></g>
<g><path style="opacity:0.858" fill="#060606" d="M 526.5,134.5 C 526.631,133.761 526.464,133.094 526,132.5C 524.951,133.517 523.784,133.684 522.5,133C 522.721,131.201 523.054,129.368 523.5,127.5C 520.924,126.117 521.258,125.283 524.5,125C 523.549,121.943 523.216,118.777 523.5,115.5C 517.833,115.5 512.167,115.5 506.5,115.5C 505.914,120.141 504.581,120.474 502.5,116.5C 502.5,114.833 502.5,113.167 502.5,111.5C 510.86,111.169 519.193,111.502 527.5,112.5C 527.709,113.086 528.043,113.586 528.5,114C 527.85,120.932 527.183,127.766 526.5,134.5 Z"/></g>
<g><path style="opacity:0.965" fill="#101010" d="M 442.5,113.5 C 445.609,132.081 448.442,150.748 451,169.5C 453.936,151.595 457.103,133.928 460.5,116.5C 461.209,117.404 462.209,117.737 463.5,117.5C 463.5,116.5 463.5,115.5 463.5,114.5C 469.204,115.039 475.204,115.372 481.5,115.5C 481.351,116.552 481.517,117.552 482,118.5C 482.099,116.347 482.933,114.681 484.5,113.5C 487.865,132.027 490.698,150.693 493,169.5C 495.932,151.658 499.098,133.991 502.5,116.5C 504.581,120.474 505.914,120.141 506.5,115.5C 512.167,115.5 517.833,115.5 523.5,115.5C 523.216,118.777 523.549,121.943 524.5,125C 521.258,125.283 520.924,126.117 523.5,127.5C 523.054,129.368 522.721,131.201 522.5,133C 523.784,133.684 524.951,133.517 526,132.5C 526.464,133.094 526.631,133.761 526.5,134.5C 524.685,135.791 523.685,137.624 523.5,140C 519.164,170.179 514.498,200.346 509.5,230.5C 508.778,230.918 508.278,231.584 508,232.5C 507.667,230.833 507.333,229.167 507,227.5C 506.804,229.904 505.638,231.571 503.5,232.5C 495.89,231.533 488.223,231.2 480.5,231.5C 480.799,229.396 480.466,227.396 479.5,225.5C 478.824,226.602 478.158,227.602 477.5,228.5C 477.217,227.711 476.717,227.044 476,226.5C 475.233,219.089 474.066,211.755 472.5,204.5C 471.59,208.888 470.59,213.222 469.5,217.5C 468.883,217.611 468.383,217.944 468,218.5C 468.218,216.413 468.051,214.413 467.5,212.5C 466.702,214.078 466.202,215.744 466,217.5C 465.781,216.062 465.281,214.729 464.5,213.5C 464.167,213.833 463.833,214.167 463.5,214.5C 465.131,219.09 465.464,223.423 464.5,227.5C 464.329,228.879 464.162,230.546 464,232.5C 456.37,232.598 448.537,232.431 440.5,232C 439.244,231.583 438.577,230.75 438.5,229.5C 440.326,227.545 440.826,225.212 440,222.5C 439.581,223.672 438.915,224.672 438,225.5C 437.568,220.154 437.734,214.82 438.5,209.5C 437.5,209.5 436.5,209.5 435.5,209.5C 434.517,206.791 434.35,204.124 435,201.5C 433.28,202.384 432.114,203.717 431.5,205.5C 427.503,182.184 423.503,158.85 419.5,135.5C 420.141,134.518 420.807,133.518 421.5,132.5C 420.895,126.889 420.895,121.222 421.5,115.5C 427.758,115.19 433.924,115.524 440,116.5C 440.236,114.881 441.069,113.881 442.5,113.5 Z"/></g>
<g><path style="opacity:1" fill="#101010" d="M 314.5,114.5 C 317.214,117.556 319.714,120.89 322,124.5C 322.451,122.071 323.285,121.904 324.5,124C 324.167,124.333 323.833,124.667 323.5,125C 324.623,126.044 325.956,126.71 327.5,127C 324.723,129.173 324.89,129.673 328,128.5C 328.232,129.737 328.732,130.737 329.5,131.5C 329.667,159.835 329.5,188.169 329,216.5C 327.583,220.362 328.416,220.529 331.5,217C 330.261,188.117 330.261,159.284 331.5,130.5C 331.043,129.702 330.376,129.369 329.5,129.5C 330.209,128.596 331.209,128.263 332.5,128.5C 332.667,158.835 332.5,189.168 332,219.5C 327.298,224.37 322.465,229.037 317.5,233.5C 316.685,232.571 315.852,231.571 315,230.5C 296.576,231.493 278.076,231.826 259.5,231.5C 259.334,226.821 259.501,222.155 260,217.5C 260.333,217.833 260.667,218.167 261,218.5C 262.214,216.951 263.714,215.785 265.5,215C 263.345,214.884 261.345,215.217 259.5,216C 260.333,215.167 261.167,214.333 262,213.5C 262.172,189.927 262.672,166.427 263.5,143C 262.755,140.429 262.421,137.929 262.5,135.5C 261.667,161.16 261.167,186.827 261,212.5C 259.926,213.618 258.76,214.618 257.5,215.5C 257.663,221.811 257.663,228.144 257.5,234.5C 258.791,234.263 259.791,234.596 260.5,235.5C 259.167,235.5 257.833,235.5 256.5,235.5C 258.404,215.298 259.404,194.798 259.5,174C 259.333,161.5 259.167,149 259,136.5C 258.283,135.956 257.783,135.289 257.5,134.5C 258.263,133.732 259.263,133.232 260.5,133C 259.525,127.259 259.192,121.425 259.5,115.5C 277.91,115.82 296.243,115.486 314.5,114.5 Z M 284.5,136.5 C 291.508,136.334 298.508,136.5 305.5,137C 306.126,137.75 306.626,138.584 307,139.5C 307.5,162.498 307.667,185.498 307.5,208.5C 306.711,208.783 306.044,209.283 305.5,210C 298.842,210.5 292.175,210.666 285.5,210.5C 284.502,186.006 284.169,161.339 284.5,136.5 Z"/></g>
<g><path style="opacity:0.972" fill="#111111" d="M 400.5,134.5 C 399.425,135.713 398.759,137.213 398.5,139C 403.073,162.485 408.073,185.985 413.5,209.5C 415.376,211.048 416.376,213.048 416.5,215.5C 416.666,220.511 416.499,225.511 416,230.5C 415.667,225.167 415.333,219.833 415,214.5C 414.282,213.549 413.449,213.383 412.5,214C 413.308,219.531 413.641,225.364 413.5,231.5C 407.463,231.829 401.463,231.496 395.5,230.5C 395.192,229.692 394.692,229.025 394,228.5C 393.038,221.097 391.704,213.764 390,206.5C 389.333,205.833 388.667,205.167 388,204.5C 379.912,205.317 371.745,205.817 363.5,206C 362.636,208.071 361.303,209.738 359.5,211C 360.022,211.561 360.355,212.228 360.5,213C 359.287,214.63 358.454,216.464 358,218.5C 357.189,217.04 356.355,216.707 355.5,217.5C 356.333,219.167 357.167,220.833 358,222.5C 358.347,218.884 359.514,218.217 361.5,220.5C 362.622,218.956 362.289,217.623 360.5,216.5C 362.784,214.002 364.118,211.002 364.5,207.5C 365.86,206.335 366.86,206.668 367.5,208.5C 365.379,216.431 363.379,224.431 361.5,232.5C 360.21,231.942 359.377,230.942 359,229.5C 356.106,230.78 352.939,231.446 349.5,231.5C 346.5,231.333 343.5,231.167 340.5,231C 339.691,225.583 339.191,220.083 339,214.5C 338.757,221.215 338.257,227.881 337.5,234.5C 336.181,227.323 336.181,219.99 337.5,212.5C 339.291,212.038 340.291,210.871 340.5,209C 345,186.66 349.667,164.493 354.5,142.5C 355.756,142.461 356.756,142.961 357.5,144C 355.224,145.03 354.557,146.53 355.5,148.5C 357.641,146.472 358.974,143.972 359.5,141C 356.84,139.343 356.84,137.676 359.5,136C 358.465,134.726 357.298,133.56 356,132.5C 355.501,126.843 355.334,121.176 355.5,115.5C 369.5,115.5 383.5,115.5 397.5,115.5C 397.223,120.233 397.557,124.9 398.5,129.5C 397.833,130.167 397.167,130.833 396.5,131.5C 397.035,133.271 397.869,133.604 399,132.5C 399.333,126.5 399.667,120.5 400,114.5C 400.425,121.467 400.592,128.134 400.5,134.5 Z M 379.5,174.5 C 380.167,177.5 380.833,180.5 381.5,183.5C 378.167,183.5 374.833,183.5 371.5,183.5C 372.759,175.37 374.593,167.37 377,159.5C 377.836,164.513 378.669,169.513 379.5,174.5 Z"/></g>
<g><path style="opacity:0.531" fill="#181818" d="M 317.5,112.5 C 322.491,117.792 327.491,123.125 332.5,128.5C 331.209,128.263 330.209,128.596 329.5,129.5C 329.5,130.167 329.5,130.833 329.5,131.5C 328.732,130.737 328.232,129.737 328,128.5C 324.89,129.673 324.723,129.173 327.5,127C 325.956,126.71 324.623,126.044 323.5,125C 323.833,124.667 324.167,124.333 324.5,124C 323.285,121.904 322.451,122.071 322,124.5C 319.714,120.89 317.214,117.556 314.5,114.5C 316.027,114.573 317.027,113.906 317.5,112.5 Z"/></g>
<g><path style="opacity:0.438" fill="#0a0a0a" d="M 442.5,113.5 C 441.069,113.881 440.236,114.881 440,116.5C 433.924,115.524 427.758,115.19 421.5,115.5C 420.895,121.222 420.895,126.889 421.5,132.5C 420.807,133.518 420.141,134.518 419.5,135.5C 418.883,135.389 418.383,135.056 418,134.5C 417.5,126.841 417.334,119.174 417.5,111.5C 425.507,111.334 433.507,111.5 441.5,112C 442.056,112.383 442.389,112.883 442.5,113.5 Z"/></g>
<g><path style="opacity:0.949" fill="#070707" d="M 329.5,129.5 C 330.376,129.369 331.043,129.702 331.5,130.5C 330.261,159.284 330.261,188.117 331.5,217C 328.416,220.529 327.583,220.362 329,216.5C 329.5,188.169 329.667,159.835 329.5,131.5C 329.5,130.833 329.5,130.167 329.5,129.5 Z"/></g>
<g><path style="opacity:0.951" fill="#101010" d="M 134.5,134.5 C 136.17,134.751 137.67,135.418 139,136.5C 144.422,148.122 150.589,159.288 157.5,170C 168.937,170.987 180.104,172.82 191,175.5C 191.667,177.167 191.667,178.833 191,180.5C 182.988,189.344 174.822,198.011 166.5,206.5C 166.167,207.5 165.833,208.5 165.5,209.5C 168.308,220.702 170.141,232.035 171,243.5C 169.915,244.293 168.748,244.96 167.5,245.5C 156.65,240.807 146.15,235.474 136,229.5C 126.6,234.45 117.1,239.283 107.5,244C 105.167,244.667 102.833,244.667 100.5,244C 99.9032,242.938 99.5698,241.772 99.5,240.5C 102.306,229.36 104.14,218.026 105,206.5C 96.9814,197.75 88.9814,189.084 81,180.5C 80.1368,178.251 80.6368,176.418 82.5,175C 92.9786,172.692 103.645,171.026 114.5,170C 120.55,157.792 127.217,145.959 134.5,134.5 Z"/></g>
<g><path style="opacity:0.035" fill="#050505" d="M 307.5,208.5 C 307.667,185.498 307.5,162.498 307,139.5C 306.626,138.584 306.126,137.75 305.5,137C 298.508,136.5 291.508,136.334 284.5,136.5C 284.423,135.25 283.756,134.417 282.5,134C 290.833,133.333 299.167,133.333 307.5,134C 309.487,135.319 310.654,137.152 311,139.5C 311.893,138.289 312.726,138.289 313.5,139.5C 312,162.488 310.834,185.488 310,208.5C 309.667,186.833 309.333,165.167 309,143.5C 308.832,165.337 308.332,187.004 307.5,208.5 Z"/></g>
<g><path style="opacity:0.43" fill="#1e1e1e" d="M 448.5,170.5 C 450.117,171.038 451.784,171.371 453.5,171.5C 453.276,173.787 452.609,175.953 451.5,178C 452.7,179.703 452.367,181.203 450.5,182.5C 449.506,178.548 448.84,174.548 448.5,170.5 Z"/></g>
<g><path style="opacity:0.996" fill="#2c2c2c" d="M 491.5,177.5 C 493.257,178.292 494.591,179.625 495.5,181.5C 492.08,182.753 490.746,181.419 491.5,177.5 Z"/></g>
<g><path style="opacity:0.292" fill="#1a1a1a" d="M 371.5,183.5 C 374.833,183.5 378.167,183.5 381.5,183.5C 380.833,180.5 380.167,177.5 379.5,174.5C 384.08,172.649 385.08,173.482 382.5,177C 382.755,178.326 383.422,179.326 384.5,180C 383.577,182.041 383.244,184.208 383.5,186.5C 380.119,186.46 376.786,186.793 373.5,187.5C 372.997,192.5 372.664,192.167 372.5,186.5C 371.178,186.33 370.011,186.663 369,187.5C 368.915,189.085 368.749,190.418 368.5,191.5C 366.955,187.795 367.955,185.129 371.5,183.5 Z"/></g>
<g><path style="opacity:0.258" fill="#212121" d="M 307.5,208.5 C 308.461,210.438 307.795,211.938 305.5,213C 298.038,213.012 290.872,213.179 284,213.5C 283.761,212.212 284.261,211.212 285.5,210.5C 292.175,210.666 298.842,210.5 305.5,210C 306.044,209.283 306.711,208.783 307.5,208.5 Z"/></g>
<g><path style="opacity:0.415" fill="#030303" d="M 317.5,233.5 C 317.389,234.117 317.056,234.617 316.5,235C 297.836,235.5 279.17,235.667 260.5,235.5C 259.791,234.596 258.791,234.263 257.5,234.5C 257.663,228.144 257.663,221.811 257.5,215.5C 258.76,214.618 259.926,213.618 261,212.5C 261.167,186.827 261.667,161.16 262.5,135.5C 262.421,137.929 262.755,140.429 263.5,143C 262.672,166.427 262.172,189.927 262,213.5C 261.167,214.333 260.333,215.167 259.5,216C 261.345,215.217 263.345,214.884 265.5,215C 263.714,215.785 262.214,216.951 261,218.5C 260.667,218.167 260.333,217.833 260,217.5C 259.501,222.155 259.334,226.821 259.5,231.5C 278.076,231.826 296.576,231.493 315,230.5C 315.852,231.571 316.685,232.571 317.5,233.5 Z"/></g>
<g><path style="opacity:0.461" fill="#020202" d="M 361.5,232.5 C 361.586,233.496 361.252,234.329 360.5,235C 352.655,235.822 344.989,235.656 337.5,234.5C 338.257,227.881 338.757,221.215 339,214.5C 339.191,220.083 339.691,225.583 340.5,231C 343.5,231.167 346.5,231.333 349.5,231.5C 352.939,231.446 356.106,230.78 359,229.5C 359.377,230.942 360.21,231.942 361.5,232.5 Z"/></g>
<g><path style="opacity:0.524" fill="#050505" d="M 416.5,215.5 C 417.652,220.985 417.818,226.651 417,232.5C 416.626,233.416 416.126,234.25 415.5,235C 408.167,235.667 400.833,235.667 393.5,235C 391.996,233.509 391.163,231.676 391,229.5C 389.615,222.526 388.449,215.526 387.5,208.5C 380.833,208.5 374.167,208.5 367.5,208.5C 366.86,206.668 365.86,206.335 364.5,207.5C 364.118,211.002 362.784,214.002 360.5,216.5C 362.289,217.623 362.622,218.956 361.5,220.5C 359.514,218.217 358.347,218.884 358,222.5C 357.167,220.833 356.333,219.167 355.5,217.5C 356.355,216.707 357.189,217.04 358,218.5C 358.454,216.464 359.287,214.63 360.5,213C 360.355,212.228 360.022,211.561 359.5,211C 361.303,209.738 362.636,208.071 363.5,206C 371.745,205.817 379.912,205.317 388,204.5C 388.667,205.167 389.333,205.833 390,206.5C 391.704,213.764 393.038,221.097 394,228.5C 394.692,229.025 395.192,229.692 395.5,230.5C 401.463,231.496 407.463,231.829 413.5,231.5C 413.641,225.364 413.308,219.531 412.5,214C 413.449,213.383 414.282,213.549 415,214.5C 415.333,219.833 415.667,225.167 416,230.5C 416.499,225.511 416.666,220.511 416.5,215.5 Z"/></g>
<g><path style="opacity:0.056" fill="#1b1b1b" d="M 233.5,218.5 C 233.832,260.337 233.499,302.003 232.5,343.5C 232.027,328.669 231.36,314.002 230.5,299.5C 230.5,287.833 230.5,276.167 230.5,264.5C 231.117,264.611 231.617,264.944 232,265.5C 232.169,249.661 232.669,233.995 233.5,218.5 Z"/></g>
<g><path style="opacity:0.525" fill="#0c0c0c" d="M 438.5,229.5 C 437.923,228.227 437.257,228.227 436.5,229.5C 437.309,231.071 437.643,232.738 437.5,234.5C 446.833,234.5 456.167,234.5 465.5,234.5C 465.244,232.208 465.577,230.041 466.5,228C 465.906,227.536 465.239,227.369 464.5,227.5C 465.464,223.423 465.131,219.09 463.5,214.5C 463.833,214.167 464.167,213.833 464.5,213.5C 465.281,214.729 465.781,216.062 466,217.5C 466.202,215.744 466.702,214.078 467.5,212.5C 468.051,214.413 468.218,216.413 468,218.5C 468.383,217.944 468.883,217.611 469.5,217.5C 468.823,223.227 467.823,228.894 466.5,234.5C 456.517,235.666 446.517,235.832 436.5,235C 433.49,225.435 431.823,215.602 431.5,205.5C 432.114,203.717 433.28,202.384 435,201.5C 434.35,204.124 434.517,206.791 435.5,209.5C 436.5,209.5 437.5,209.5 438.5,209.5C 437.734,214.82 437.568,220.154 438,225.5C 438.915,224.672 439.581,223.672 440,222.5C 440.826,225.212 440.326,227.545 438.5,229.5 Z"/></g>
<g><path style="opacity:0.551" fill="#020202" d="M 464.5,227.5 C 465.239,227.369 465.906,227.536 466.5,228C 465.577,230.041 465.244,232.208 465.5,234.5C 456.167,234.5 446.833,234.5 437.5,234.5C 437.643,232.738 437.309,231.071 436.5,229.5C 437.257,228.227 437.923,228.227 438.5,229.5C 438.577,230.75 439.244,231.583 440.5,232C 448.537,232.431 456.37,232.598 464,232.5C 464.162,230.546 464.329,228.879 464.5,227.5 Z"/></g>
<g><path style="opacity:0.466" fill="#040404" d="M 509.5,230.5 C 509.714,232.144 509.38,233.644 508.5,235C 498.483,235.832 488.483,235.666 478.5,234.5C 477.652,232.591 477.318,230.591 477.5,228.5C 478.158,227.602 478.824,226.602 479.5,225.5C 480.466,227.396 480.799,229.396 480.5,231.5C 488.223,231.2 495.89,231.533 503.5,232.5C 505.638,231.571 506.804,229.904 507,227.5C 507.333,229.167 507.667,230.833 508,232.5C 508.278,231.584 508.778,230.918 509.5,230.5 Z"/></g>
</svg>
